<?xml version="1.0" standalone="no"?>
<!DOCTYPE svg PUBLIC "-//W3C//DTD SVG 20010904//EN"
 "http://www.w3.org/TR/2001/REC-SVG-20010904/DTD/svg10.dtd">
<svg version="1.0" xmlns="http://www.w3.org/2000/svg"
 width="225.000000pt" height="225.000000pt" viewBox="0 0 225.000000 225.000000"
 preserveAspectRatio="xMidYMid meet">
<metadata>
Created by potrace 1.14, written by Peter Selinger 2001-2017
</metadata>
<g transform="translate(0.000000,225.000000) scale(0.100000,-0.100000)"
fill="#000000" stroke="none">
<path d="M560 1125 l0 -1005 190 0 190 0 1 498 c0 273 3 490 6 482 3 -8 83
-211 178 -450 94 -239 180 -456 190 -483 l18 -47 178 0 179 0 0 1005 0 1005
-190 0 -190 0 -2 -485 -3 -486 -184 486 -185 485 -188 0 -188 0 0 -1005z"/>
</g>
</svg>
